# Blender 4.0.2
# www.blender.org
mtllib track_roadcrossing_base.mtl
o Track_roadcrossing
v 0.355548 0.030000 -0.500477
v 0.355676 0.082713 -0.500041
v 0.470981 0.030000 -0.500477
v 0.362353 0.082693 -0.500304
v 0.470981 0.030000 0.500436
v 0.361814 0.082693 0.499959
v 0.355548 0.030000 0.500436
v 0.355770 0.082713 0.499959
v -0.355533 0.030000 0.500436
v -0.355662 0.083020 0.500000
v -0.470967 0.029742 0.500436
v -0.362339 0.083000 0.500263
v -0.470967 0.029742 -0.500477
v -0.361800 0.083000 -0.500000
v -0.355533 0.030000 -0.500477
v -0.355756 0.083020 -0.500000
v 0.470245 -0.030390 0.500436
v 0.470245 0.030000 0.500436
v -0.470845 -0.030390 0.500436
v -0.470845 0.029424 0.500436
v -0.470845 -0.030390 -0.500477
v -0.470845 0.030000 -0.500477
v 0.470245 -0.030390 -0.500477
v 0.470245 0.030000 -0.500477
v 0.288296 0.029742 0.500436
v 0.288296 0.082502 0.500436
v -0.287922 0.029742 0.500436
v -0.287922 0.082502 0.500436
v -0.287922 0.029742 -0.500477
v -0.287922 0.082502 -0.500477
v 0.288296 0.029742 -0.500477
v 0.288296 0.082502 -0.500477
v -0.300477 0.030000 0.500000
v -0.360477 0.030000 0.500000
v -0.360477 0.030000 -0.500000
v -0.300477 0.030000 -0.500000
v -0.352366 0.085803 0.500000
v -0.308588 0.085803 0.500000
v -0.360477 0.041289 0.500000
v -0.360477 0.041289 -0.500000
v -0.352366 0.085803 -0.500000
v -0.318222 0.041289 0.500000
v -0.342732 0.041289 0.500000
v -0.318222 0.071584 0.500000
v -0.318222 0.071584 -0.500000
v -0.352366 0.071584 0.500000
v -0.342732 0.071584 0.500000
v -0.342732 0.041289 -0.500000
v -0.352366 0.071584 -0.500000
v -0.342732 0.071584 -0.500000
v -0.318222 0.041289 -0.500000
v -0.308588 0.071584 0.500000
v -0.308588 0.071584 -0.500000
v -0.300477 0.041289 -0.500000
v -0.300477 0.041289 0.500000
v -0.308588 0.085803 -0.500000
v 0.300477 0.030000 0.500000
v 0.360477 0.030000 0.500000
v 0.360477 0.030000 -0.500000
v 0.300477 0.030000 -0.500000
v 0.352366 0.085803 0.500000
v 0.308588 0.085803 0.500000
v 0.360477 0.041289 0.500000
v 0.360477 0.041289 -0.500000
v 0.352366 0.085803 -0.500000
v 0.318222 0.041289 0.500000
v 0.342732 0.041289 0.500000
v 0.318222 0.071584 0.500000
v 0.318222 0.071584 -0.500000
v 0.352366 0.071584 0.500000
v 0.342732 0.071584 0.500000
v 0.342732 0.041289 -0.500000
v 0.352366 0.071584 -0.500000
v 0.342732 0.071584 -0.500000
v 0.318222 0.041289 -0.500000
v 0.308588 0.071584 0.500000
v 0.308588 0.071584 -0.500000
v 0.300477 0.041289 -0.500000
v 0.300477 0.041289 0.500000
v 0.308588 0.085803 -0.500000
v 0.317867 -0.025279 0.390000
v 0.317867 0.054721 0.390000
v 0.287867 -0.025279 0.390000
v 0.287867 0.054721 0.390000
v 0.287867 -0.025279 0.360000
v 0.287867 0.054721 0.360000
v 0.317867 -0.025279 0.360000
v 0.317867 0.054721 0.360000
v -0.317867 -0.025279 0.390000
v -0.317867 0.054721 0.390000
v -0.287867 -0.025279 0.390000
v -0.287867 0.054721 0.390000
v -0.287867 -0.025279 0.360000
v -0.287867 0.054721 0.360000
v -0.317867 -0.025279 0.360000
v -0.317867 0.054721 0.360000
v 0.317867 -0.025279 0.140000
v 0.317867 0.054721 0.140000
v 0.287867 -0.025279 0.140000
v 0.287867 0.054721 0.140000
v 0.287867 -0.025279 0.110000
v 0.287867 0.054721 0.110000
v 0.317867 -0.025279 0.110000
v 0.317867 0.054721 0.110000
v -0.317867 -0.025279 0.140000
v -0.317867 0.054721 0.140000
v -0.287867 -0.025279 0.140000
v -0.287867 0.054721 0.140000
v -0.287867 -0.025279 0.110000
v -0.287867 0.054721 0.110000
v -0.317867 -0.025279 0.110000
v -0.317867 0.054721 0.110000
v 0.317867 -0.025279 -0.110000
v 0.317867 0.054721 -0.110000
v 0.287867 -0.025279 -0.110000
v 0.287867 0.054721 -0.110000
v 0.287867 -0.025279 -0.140000
v 0.287867 0.054721 -0.140000
v 0.317867 -0.025279 -0.140000
v 0.317867 0.054721 -0.140000
v -0.317867 -0.025279 -0.110000
v -0.317867 0.054721 -0.110000
v -0.287867 -0.025279 -0.110000
v -0.287867 0.054721 -0.110000
v -0.287867 -0.025279 -0.140000
v -0.287867 0.054721 -0.140000
v -0.317867 -0.025279 -0.140000
v -0.317867 0.054721 -0.140000
v 0.317867 -0.025279 -0.360000
v 0.317867 0.054721 -0.360000
v 0.287867 -0.025279 -0.360000
v 0.287867 0.054721 -0.360000
v 0.287867 -0.025279 -0.390000
v 0.287867 0.054721 -0.390000
v 0.317867 -0.025279 -0.390000
v 0.317867 0.054721 -0.390000
v -0.317867 -0.025279 -0.360000
v -0.317867 0.054721 -0.360000
v -0.287867 -0.025279 -0.360000
v -0.287867 0.054721 -0.360000
v -0.287867 -0.025279 -0.390000
v -0.287867 0.054721 -0.390000
v -0.317867 -0.025279 -0.390000
v -0.317867 0.054721 -0.390000
v -0.223867 0.082502 0.500436
v 0.224242 0.082502 0.500436
v -0.223867 0.029742 0.500436
v 0.224242 0.029742 0.500436
v 0.224242 0.082502 -0.500477
v -0.223867 0.082502 -0.500477
v 0.224242 0.029742 -0.500477
v -0.223867 0.029742 -0.500477
vn -0.0197 0.0058 -0.9998
vn 0.4356 0.9002 0.0001
vn 0.2250 0.9744 0.0001
vn -0.0000 0.0091 1.0000
vn -1.0000 0.0033 -0.0000
vn 0.0031 1.0000 -0.0000
vn -0.0000 -1.0000 -0.0000
vn 0.0197 0.0058 0.9998
vn -0.4393 0.8983 -0.0001
vn -0.2270 0.9739 -0.0001
vn -0.0000 0.0090 -1.0000
vn 1.0000 0.0033 -0.0000
vn -0.0031 1.0000 -0.0000
vn 0.0022 -1.0000 -0.0000
vn -0.0000 -0.0000 1.0000
vn -1.0000 -0.0000 -0.0000
vn -0.0000 -0.0000 -1.0000
vn 1.0000 -0.0000 -0.0000
vn -0.0003 1.0000 0.0003
vn -0.0000 1.0000 -0.0000
vt 0.999710 0.875391
vt 0.501434 0.875368
vt 0.501068 0.998304
vt 0.999207 0.998661
vt 0.501617 0.875505
vt 0.500778 0.998977
vt 0.999405 0.998420
vt 1.000000 0.875906
vt 0.999802 0.875875
vt 0.501160 0.875824
vt 0.501038 0.997322
vt 0.999329 0.998516
vt 0.501099 0.938250
vt 0.501099 0.998896
vt 0.999481 0.997944
vt 0.999313 0.937612
vt 0.501297 0.937895
vt 0.501144 0.998528
vt 0.999390 0.998827
vt 0.999222 0.937884
vt 0.500519 0.000885
vt 0.500214 0.999836
vt 0.999695 0.999570
vt 0.999527 0.000656
vt 0.999741 0.875809
vt 0.501343 0.876173
vt 0.500809 0.999405
vt 0.999420 0.998486
vt 0.501236 0.875582
vt 0.500717 0.999089
vt 0.999435 0.998026
vt 0.999756 0.874729
vt 0.501221 0.999344
vt 0.999451 0.999016
vt 0.999725 0.875835
vt 0.500793 0.877401
vt 0.501068 0.938041
vt 0.501068 0.998375
vt 0.999771 0.998670
vt 0.999283 0.937714
vt 0.501434 0.937728
vt 0.501160 0.998686
vt 0.999390 0.998674
vt 0.999222 0.938029
vt 0.501205 0.125992
vt 0.500870 0.873230
vt 0.999374 0.873970
vt 0.999695 0.126022
vt 0.501038 0.126770
vt 0.500641 0.873631
vt 0.999619 0.873806
vt 0.999466 0.126480
vt 0.500748 0.126923
vt 0.500961 0.873405
vt 0.999603 0.874069
vt 0.999603 0.126648
vt 0.500732 0.125519
vt 0.500641 0.873009
vt 0.999619 0.873802
vt 0.999771 0.126480
vt 0.501144 0.126038
vt 0.500595 0.872799
vt 0.999359 0.874226
vt 0.999512 0.126999
vt 0.500641 0.126144
vt 0.500717 0.873604
vt 0.999390 0.874104
vt 0.999542 0.126175
vt 0.500000 0.000000
vt 1.000000 0.000000
vt 1.000000 0.125000
vt 0.500000 0.125000
vt 0.500000 0.875000
vt 1.000000 0.875000
vt 1.000000 1.000000
vt 0.500000 1.000000
vt 0.999603 0.937092
vt 0.999771 0.999297
vt 1.000240 0.998619
vt 1.000240 0.937099
vt 0.503777 0.875830
vt 0.502106 0.997253
vt 0.479324 0.108414
vt 0.475037 0.108414
vt 0.475037 0.120911
vt 0.490234 0.108414
vt 0.494522 0.120911
vt 0.494522 0.108414
vt 0.490234 0.081772
vt 0.498131 0.081772
vt 0.498131 0.068146
vt 0.471428 0.068146
vt 0.471428 0.081772
vt 0.479324 0.081772
vt 0.453766 0.061584
vt 0.453766 0.048721
vt 0.001425 0.048096
vt 0.001425 0.061890
vt 0.471191 0.005432
vt 0.471191 0.019058
vt 0.479088 0.019058
vt 0.489998 0.019058
vt 0.497894 0.019058
vt 0.497894 0.005432
vt 0.494598 0.058197
vt 0.494598 0.045700
vt 0.490311 0.045700
vt 0.479401 0.045700
vt 0.479088 0.045700
vt 0.474800 0.045700
vt 0.474800 0.058197
vt 0.494286 0.058197
vt 0.489998 0.045700
vt 0.453499 0.046799
vt 0.453499 0.033096
vt 0.001640 0.033096
vt 0.001640 0.046799
vt 0.453552 0.258881
vt 0.453476 0.219147
vt 0.000031 0.219147
vt 0.000230 0.258041
vt 0.453468 0.159302
vt 0.000289 0.159302
vt 0.000446 0.214569
vt 0.453468 0.213013
vt 0.453529 0.097992
vt 0.001952 0.097992
vt 0.001952 0.125031
vt 0.453529 0.125031
vt 0.453529 0.018341
vt 0.001952 0.018341
vt 0.001952 0.031021
vt 0.453529 0.031021
vt 0.454102 0.329193
vt 0.000334 0.328873
vt 0.000334 0.344025
vt 0.454407 0.344025
vt 0.000334 0.311951
vt 0.454254 0.312271
vt 0.454102 0.295807
vt 0.000490 0.297684
vt 0.453529 0.066864
vt 0.001952 0.066864
vt 0.001952 0.093887
vt 0.453529 0.093887
vt 0.453529 0.005661
vt 0.001952 0.005661
vt 0.454536 0.312485
vt 0.000322 0.313110
vt 0.000322 0.328247
vt 0.454224 0.327942
vt 0.000334 0.297989
vt 0.454102 0.296112
vt 0.454102 0.281845
vt 0.000490 0.281219
vt 0.494522 0.045380
vt 0.475113 0.058197
vt 0.475113 0.045700
vt 0.494522 0.045700
vt 0.494286 0.045700
vt 0.478935 0.019058
vt 0.489845 0.019058
vt 0.489998 0.045380
vt 0.007884 0.124710
vt 0.468948 0.187424
vt 0.468948 0.343399
vt 0.500290 0.343399
vt 0.500137 0.187424
vt 0.468994 0.125275
vt 0.468994 0.187378
vt 0.500015 0.187378
vt 0.499863 0.125275
vt 0.501221 0.875541
s 0
usemtl Mat_1.004
f 1/1/1 2/2/1 4/3/1 3/4/1
f 3/5/2 4/6/3 6/7/3 5/8/2
f 5/9/4 6/10/4 8/11/4 7/12/4
f 7/13/5 8/14/5 2/15/5 1/16/5
f 2/17/6 8/18/6 6/19/3 4/20/3
f 7/21/7 1/22/7 3/23/7 5/24/7
f 9/25/8 10/26/8 12/27/8 11/28/8
f 11/29/9 12/30/10 14/31/10 13/32/9
f 13/33/11 14/34/11 16/35/11 15/36/11
f 15/37/12 16/38/12 10/39/12 9/40/12
f 10/41/13 16/42/13 14/43/10 12/44/10
f 15/21/14 9/22/14 11/23/14 13/24/14
f 17/45/15 18/46/15 20/47/15 19/48/15
f 19/49/16 20/50/16 22/51/16 21/52/16
f 21/53/17 22/54/17 24/55/17 23/56/17
f 23/57/18 24/58/18 18/59/18 17/60/18
f 18/61/19 24/62/19 22/63/19 20/64/19
f 23/65/7 17/66/7 19/67/7 21/68/7
f 151/69/18 149/70/18 146/71/18 148/72/18
f 27/73/16 28/74/16 30/75/16 29/76/16
f 29/77/17 30/78/17 150/79/17 152/80/17
f 31/69/18 32/70/18 26/71/18 25/72/18
f 31/69/15 32/70/15 149/71/15 151/72/15
f 147/81/16 145/82/16 150/79/16 152/80/16
f 44/83/15 52/84/15 38/85/15 47/86/15
f 37/87/15 46/88/15 47/86/15 38/85/15
f 43/89/15 39/90/15 34/91/15 33/92/15
f 33/92/15 55/93/15 42/94/15 43/89/15
f 47/86/15 43/89/15 42/94/15 44/83/15
f 40/95/16 35/96/16 34/97/16 39/98/16
f 35/99/17 40/100/17 48/101/17 51/102/17
f 51/102/17 54/103/17 36/104/17 35/99/17
f 56/105/17 53/106/17 45/107/17 50/108/17
f 50/109/17 49/110/17 41/111/17 56/112/17
f 50/109/17 45/113/17 51/102/17 48/101/17
f 55/114/18 33/115/18 36/116/18 54/117/18
f 37/118/20 38/119/20 56/120/20 41/121/20
f 36/122/7 33/123/7 34/124/7 35/125/7
f 42/126/18 51/127/18 45/128/18 44/129/18
f 52/130/18 53/131/18 56/132/18 38/133/18
f 53/134/7 52/135/7 44/136/7 45/137/7
f 51/138/20 42/139/20 55/140/20 54/141/20
f 48/142/16 43/143/16 47/144/16 50/145/16
f 49/146/16 46/147/16 37/131/16 41/130/16
f 50/148/7 47/149/7 46/150/7 49/151/7
f 40/152/20 39/153/20 43/154/20 48/155/20
f 68/83/15 71/86/15 62/85/15 76/84/15
f 62/85/15 71/86/15 70/88/15 61/87/15
f 67/89/15 66/94/15 58/91/15 63/90/15
f 58/91/15 66/94/15 79/93/15 57/92/15
f 67/89/15 71/86/15 68/83/15 66/94/15
f 64/95/18 63/98/18 58/97/18 59/96/18
f 78/103/17 75/102/17 59/99/17 60/104/17
f 59/99/17 75/102/17 72/101/17 64/100/17
f 74/108/17 69/156/17 65/157/17 73/158/17
f 65/111/17 69/159/17 77/160/17 80/112/17
f 72/161/17 75/162/17 69/163/17 74/109/17
f 79/114/16 78/117/16 60/116/16 57/115/16
f 61/118/20 65/121/20 80/120/20 62/119/20
f 60/122/7 59/125/7 58/124/7 57/123/7
f 66/126/16 68/129/16 69/164/16 75/127/16
f 76/130/16 62/133/16 80/132/16 77/131/16
f 77/134/7 69/137/7 68/136/7 76/135/7
f 75/138/20 78/141/20 79/140/20 66/139/20
f 72/142/18 74/145/18 71/144/18 67/143/18
f 73/146/18 65/130/18 61/131/18 70/147/18
f 74/148/7 73/151/7 70/150/7 71/149/7
f 64/152/20 72/155/20 67/154/20 63/153/20
f 81/165/15 82/166/15 84/167/15 83/168/15
f 83/165/16 84/166/16 86/167/16 85/168/16
f 85/165/17 86/166/17 88/167/17 87/168/17
f 87/165/18 88/166/18 82/167/18 81/168/18
f 82/169/20 88/170/20 86/171/20 84/172/20
f 89/165/15 91/168/15 92/167/15 90/166/15
f 91/165/18 93/168/18 94/167/18 92/166/18
f 93/165/17 95/168/17 96/167/17 94/166/17
f 95/165/16 89/168/16 90/167/16 96/166/16
f 90/169/20 92/172/20 94/171/20 96/170/20
f 97/165/15 98/166/15 100/167/15 99/168/15
f 99/165/16 100/166/16 102/167/16 101/168/16
f 101/165/17 102/166/17 104/167/17 103/168/17
f 103/165/18 104/166/18 98/167/18 97/168/18
f 98/169/20 104/170/20 102/171/20 100/172/20
f 105/165/15 107/168/15 108/167/15 106/166/15
f 107/165/18 109/168/18 110/167/18 108/166/18
f 109/165/17 111/168/17 112/167/17 110/166/17
f 111/165/16 105/168/16 106/167/16 112/166/16
f 106/169/20 108/172/20 110/171/20 112/170/20
f 113/165/15 114/166/15 116/167/15 115/168/15
f 115/165/16 116/166/16 118/167/16 117/168/16
f 117/165/17 118/166/17 120/167/17 119/168/17
f 119/165/18 120/166/18 114/167/18 113/168/18
f 114/169/20 120/170/20 118/171/20 116/172/20
f 121/165/15 123/168/15 124/167/15 122/166/15
f 123/165/18 125/168/18 126/167/18 124/166/18
f 125/165/17 127/168/17 128/167/17 126/166/17
f 127/165/16 121/168/16 122/167/16 128/166/16
f 122/169/20 124/172/20 126/171/20 128/170/20
f 129/165/15 130/166/15 132/167/15 131/168/15
f 131/165/16 132/166/16 134/167/16 133/168/16
f 133/165/17 134/166/17 136/167/17 135/168/17
f 135/165/18 136/166/18 130/167/18 129/168/18
f 130/169/20 136/170/20 134/171/20 132/172/20
f 137/165/15 139/168/15 140/167/15 138/166/15
f 139/165/18 141/168/18 142/167/18 140/166/18
f 141/165/17 143/168/17 144/167/17 142/166/17
f 143/165/16 137/168/16 138/167/16 144/166/16
f 138/169/20 140/172/20 142/171/20 144/170/20
f 27/73/17 28/74/17 145/75/17 147/76/17
f 25/69/15 26/70/15 146/71/15 148/72/15
f 151/69/20 148/70/20 25/71/20 31/72/20
f 147/81/20 152/80/20 29/77/20 27/173/20
f 145/73/7 28/74/7 30/75/7 150/76/7
f 32/69/20 149/70/20 146/71/20 26/72/20
l 92 33
l 92 55
